<svg xmlns="http://www.w3.org/2000/svg" viewBox="0 0 100 100" role="img" aria-label="Deep Sea die showing 5" data-theme="deep-sea" data-face="5"><defs><linearGradient id="abyss-shell" x1="12" y1="6" x2="90" y2="96" gradientUnits="userSpaceOnUse"><stop stop-color="#147e92"/><stop offset=".38" stop-color="#075168"/><stop offset=".72" stop-color="#07344f"/><stop offset="1" stop-color="#03192e"/></linearGradient><filter id="abyss-glow" x="-30%" y="-30%" width="160%" height="170%"><feDropShadow dx="0" dy="4" stdDeviation="3" flood-color="#00111f" flood-opacity=".82"/><feDropShadow dx="0" dy="0" stdDeviation="2" flood-color="#2cf4e5" flood-opacity=".45"/></filter><g id="bioluminescent-pip"><circle r="7.3" fill="#083e59" stroke="#60fff0" stroke-width="1.7"/><circle r="4" fill="#41f8e4"/><circle cx="-1.6" cy="-1.8" r="1.5" fill="#d9fffb" opacity=".9"/></g><g id="pip"><use href="#bioluminescent-pip"/></g></defs><path d="M19 5h62c9 0 14 5 14 14v62c0 9-5 14-14 14H19C10 95 5 90 5 81V19C5 10 10 5 19 5Z" fill="url(#abyss-shell)" stroke="#5befe4" stroke-width="2.4" filter="url(#abyss-glow)"/><path d="M13 83c7-12 10 9 16-6 5-13 8 7 13-5M59 89c4-17 9 2 12-13 3-12 8 7 14-6" fill="none" stroke="#ef62bd" stroke-width="2.1" stroke-linecap="round" opacity=".62"/><use href="#pip" transform="translate(28 28)"/><use href="#pip" transform="translate(72 28)"/><use href="#pip" transform="translate(50 50)"/><use href="#pip" transform="translate(28 72)"/><use href="#pip" transform="translate(72 72)"/></svg>
