<svg xmlns="http://www.w3.org/2000/svg" viewBox="0 0 100 100" role="img" aria-label="Jungle Adventure die showing 4" data-theme="jungle-adventure" data-face="4"><defs><linearGradient id="stone-shell" x1="10" y1="5" x2="92" y2="96" gradientUnits="userSpaceOnUse"><stop stop-color="#c9bd89"/><stop offset=".34" stop-color="#91855f"/><stop offset=".7" stop-color="#655f45"/><stop offset="1" stop-color="#3f4735"/></linearGradient><filter id="ruin-shadow" x="-25%" y="-25%" width="150%" height="165%"><feDropShadow dx="0" dy="5" stdDeviation="3" flood-color="#102014" flood-opacity=".8"/></filter><g id="vine-pip"><circle r="7.8" fill="#263628" stroke="#b3c875" stroke-width="1.6"/><path d="M-4.3 3.5C-1-3.5 2.8-5.2 5.2-4.4C4.4-.7 2 1.9-4.3 3.5Z" fill="#75a348"/><circle cx=".8" cy="-.8" r="1.8" fill="#c9db85"/></g><g id="pip"><use href="#vine-pip"/></g></defs><path d="M20 5h58l17 13v61L81 95H19L5 81V20Z" fill="url(#stone-shell)" stroke="#d8cf9d" stroke-width="3" filter="url(#ruin-shadow)"/><path d="m18 16 14 11-8 14 10 8M83 13 72 26l7 13-11 10M12 75l16-7 8 13M87 66 74 76l5 11" fill="none" stroke="#404638" stroke-width="2" opacity=".65"/><path d="M8 57c14 1 6-17 20-20M92 31C78 30 84 48 69 49" fill="none" stroke="#4f7c3a" stroke-width="3" stroke-linecap="round"/><use href="#pip" transform="translate(29 29)"/><use href="#pip" transform="translate(71 29)"/><use href="#pip" transform="translate(29 71)"/><use href="#pip" transform="translate(71 71)"/></svg>
