<svg xmlns="http://www.w3.org/2000/svg" viewBox="0 0 100 100" data-theme="american" data-face="6"><defs><pattern id="flag-stripes" width="100" height="20" patternUnits="userSpaceOnUse"><rect width="100" height="20" fill="#d93b4b"/><rect y="10" width="100" height="10" fill="#f7f2df"/></pattern><linearGradient id="badge-edge" x1="5" y1="5" x2="95" y2="95" gradientUnits="userSpaceOnUse"><stop stop-color="#fff0b2"/><stop offset=".45" stop-color="#d6aa44"/><stop offset="1" stop-color="#785014"/></linearGradient><filter id="shadow" x="-20%" y="-20%" width="140%" height="150%"><feDropShadow dx="0" dy="4" stdDeviation="3" flood-color="#021027" flood-opacity=".65"/></filter><clipPath id="badge"><path d="M17 4h66l13 13v66L83 96H17L4 83V17Z"/></clipPath><path id="liberty-star" d="M0-7 2.1-2.4 7-2.2 3.2.9 4.5 6 0 3.3-4.5 6-3.2.9-7-2.2-2.1-2.4Z"/><g id="pip"><circle r="8" fill="#11386d" stroke="#f4d46d" stroke-width="1.7"/><use href="#liberty-star" fill="#fffdf3" stroke="#d63c4c" stroke-width=".9" stroke-linejoin="round"/><circle r="1.5" fill="#d83d4d"/></g></defs><path d="M17 4h66l13 13v66L83 96H17L4 83V17Z" fill="url(#badge-edge)" stroke="#fff2bd" stroke-width="2" filter="url(#shadow)"/><g clip-path="url(#badge)"><rect x="8" y="8" width="84" height="84" fill="url(#flag-stripes)"/><rect x="8" y="8" width="45" height="40" fill="#123e79"/><g fill="#fff" opacity=".8"><circle cx="17" cy="17" r="1.3"/><circle cx="29" cy="17" r="1.3"/><circle cx="41" cy="17" r="1.3"/><circle cx="23" cy="27" r="1.3"/><circle cx="35" cy="27" r="1.3"/><circle cx="47" cy="27" r="1.3"/><circle cx="17" cy="38" r="1.3"/><circle cx="29" cy="38" r="1.3"/><circle cx="41" cy="38" r="1.3"/></g><path d="M8 58c20-9 48 11 84-5v39H8Z" fill="#174986" opacity=".2"/></g><path d="M19 10h62l9 9v62l-9 9H19l-9-9V19Z" fill="none" stroke="#fff8dd" stroke-width="2.5" stroke-dasharray="2 5" stroke-linecap="round"/><use href="#pip" transform="translate(28 24)"/><use href="#pip" transform="translate(28 50)"/><use href="#pip" transform="translate(28 76)"/><use href="#pip" transform="translate(72 24)"/><use href="#pip" transform="translate(72 50)"/><use href="#pip" transform="translate(72 76)"/></svg>
