<svg xmlns="http://www.w3.org/2000/svg" viewBox="0 0 100 100" role="img" aria-label="Baseball die showing 6" data-theme="baseball" data-face="6"><defs><linearGradient id="leather-shell" x1="8" y1="7" x2="92" y2="95" gradientUnits="userSpaceOnUse"><stop stop-color="#fffdf0"/><stop offset=".45" stop-color="#eadcb9"/><stop offset=".78" stop-color="#d1b783"/><stop offset="1" stop-color="#aa8555"/></linearGradient><filter id="ball-shadow"><feDropShadow dx="0" dy="4" stdDeviation="3" flood-color="#071d2f" flood-opacity=".62"/></filter><g id="baseball-pip"><circle r="7.5" fill="#fffdf2" stroke="#173f68" stroke-width="1.2"/><path d="M-6-4C-2-2-2 2-6 4M6-4C2-2 2 2 6 4" fill="none" stroke="#c83c3d" stroke-width="1.2"/><path d="m-5-2-2 1m2 2-2 1M5-2l2 1M5 1l2 1" stroke="#c83c3d"/></g><g id="pip"><use href="#baseball-pip"/></g></defs><rect x="5" y="5" width="90" height="90" rx="22" fill="url(#leather-shell)" stroke="#173f68" stroke-width="4" filter="url(#ball-shadow)"/><path d="M7 27C28 33 29 67 7 74M93 27C72 33 71 67 93 74" fill="none" stroke="#c83c3d" stroke-width="3"/><path d="M12 30l-5 4m8 2-6 3m7 4-6 2m6 9-6 2m5 7-6-2m4 9-5-3M88 30l5 4m-8 2 6 3m-7 4 6 2m-6 9 6 2m-5 7 6-2m-4 9 5-3" stroke="#c83c3d" stroke-width="1.5"/><path d="m30 72 33-48M37 76l32-48" stroke="#173f68" stroke-width="5" stroke-linecap="round" opacity=".1"/><path d="M13 13h15l-7 7v10l-8-5Z" fill="#173f68" opacity=".9"/><use href="#pip" transform="translate(29 24)"/><use href="#pip" transform="translate(29 50)"/><use href="#pip" transform="translate(29 76)"/><use href="#pip" transform="translate(71 24)"/><use href="#pip" transform="translate(71 50)"/><use href="#pip" transform="translate(71 76)"/></svg>
